<?xml version="1.0" encoding="utf-8"?>
<!-- Generator: Adobe Illustrator 18.0.0, SVG Export Plug-In . SVG Version: 6.00 Build 0)  -->
<!DOCTYPE svg PUBLIC "-//W3C//DTD SVG 1.1//EN" "http://www.w3.org/Graphics/SVG/1.1/DTD/svg11.dtd">
<svg version="1.1" id="Capa_1" xmlns="http://www.w3.org/2000/svg" xmlns:xlink="http://www.w3.org/1999/xlink" x="0px" y="0px"
	 viewBox="0 0 1920 1080" enable-background="new 0 0 1920 1080" xml:space="preserve">
<g>
	<path fill="#FD6561" d="M739,403.1H761L723.7,477H700l-37.3-73.9h21.9l27.2,57.7L739,403.1z"/>
	<path fill="#FD6561" d="M846.6,403.1v18.3h-60.9v10.2h60.9V449h-60.9v9.7h60.9V477h-80.4v-73.9H846.6z"/>
	<path fill="#FD6561" d="M926.4,456.5l22.5,20.5H922l-19.5-18.6h-26V477h-19.7v-73.9h52.9c13.4,0,35.3,2.1,35.3,27.6
		C945.1,447,936.2,453.7,926.4,456.5z M876.6,439.9h34.9c10.5,0,13-3.3,13-9.1s-2.6-9-13-9h-34.9V439.9z"/>
	<path fill="#FD6561" d="M950.9,403.1h74.4v18.6h-27.7V477H978v-55.3h-27.1V403.1z"/>
	<path fill="#FD6561" d="M1033.6,403.1h19.6V477h-19.6V403.1z"/>
	<path fill="#FD6561" d="M1082,440.1c0,9.4,2.6,18.4,13,18.4h27.3c6.4,0,10.8-3.7,11.7-8.6h-35.5v-13.7h56.3V477h-14.1l-2.4-5.4
		c-8,4.7-17.5,5.4-24,5.4h-14c-13.4,0-39-2.9-39-37c0-34,25.7-37,39-37h16c12.1,0,34.4,2.5,38.4,28.3h-21c-1.1-5.9-5-9.6-11.9-9.6
		h-26.9C1084.6,421.8,1082,430.8,1082,440.1z"/>
	<path fill="#FD6561" d="M1257.3,440.1c0,34.1-25.7,37-39,37h-16c-13.4,0-39-2.9-39-37c0-34,25.7-37,39-37h16
		C1231.6,403.1,1257.3,406.1,1257.3,440.1z M1236.7,440.1c0-9.3-2.6-18.3-13-18.3h-26.8c-10.5,0-13,9-13,18.3
		c0,9.4,2.6,18.4,13,18.4h26.8C1234.1,458.5,1236.7,449.5,1236.7,440.1z"/>
</g>
</svg>
